<svg id="visual" viewBox="0 0 900 600" width="900" height="600" xmlns="http://www.w3.org/2000/svg" xmlns:xlink="http://www.w3.org/1999/xlink" version="1.1"><rect x="0" y="0" width="900" height="600" fill="#001220"></rect><defs><linearGradient id="grad1_0" x1="33.3%" y1="0%" x2="100%" y2="100%"><stop offset="20%" stop-color="#fbae3c" stop-opacity="1"></stop><stop offset="80%" stop-color="#fbae3c" stop-opacity="1"></stop></linearGradient></defs><defs><linearGradient id="grad1_1" x1="33.3%" y1="0%" x2="100%" y2="100%"><stop offset="20%" stop-color="#fbae3c" stop-opacity="1"></stop><stop offset="80%" stop-color="#f17c53" stop-opacity="1"></stop></linearGradient></defs><defs><linearGradient id="grad1_2" x1="33.3%" y1="0%" x2="100%" y2="100%"><stop offset="20%" stop-color="#cc5867" stop-opacity="1"></stop><stop offset="80%" stop-color="#f17c53" stop-opacity="1"></stop></linearGradient></defs><defs><linearGradient id="grad1_3" x1="33.3%" y1="0%" x2="100%" y2="100%"><stop offset="20%" stop-color="#cc5867" stop-opacity="1"></stop><stop offset="80%" stop-color="#96446e" stop-opacity="1"></stop></linearGradient></defs><defs><linearGradient id="grad1_4" x1="33.3%" y1="0%" x2="100%" y2="100%"><stop offset="20%" stop-color="#593762" stop-opacity="1"></stop><stop offset="80%" stop-color="#96446e" stop-opacity="1"></stop></linearGradient></defs><defs><linearGradient id="grad1_5" x1="33.3%" y1="0%" x2="100%" y2="100%"><stop offset="20%" stop-color="#593762" stop-opacity="1"></stop><stop offset="80%" stop-color="#232745" stop-opacity="1"></stop></linearGradient></defs><defs><linearGradient id="grad1_6" x1="33.3%" y1="0%" x2="100%" y2="100%"><stop offset="20%" stop-color="#001220" stop-opacity="1"></stop><stop offset="80%" stop-color="#232745" stop-opacity="1"></stop></linearGradient></defs><defs><linearGradient id="grad2_0" x1="0%" y1="0%" x2="66.7%" y2="100%"><stop offset="20%" stop-color="#fbae3c" stop-opacity="1"></stop><stop offset="80%" stop-color="#fbae3c" stop-opacity="1"></stop></linearGradient></defs><defs><linearGradient id="grad2_1" x1="0%" y1="0%" x2="66.7%" y2="100%"><stop offset="20%" stop-color="#f17c53" stop-opacity="1"></stop><stop offset="80%" stop-color="#fbae3c" stop-opacity="1"></stop></linearGradient></defs><defs><linearGradient id="grad2_2" x1="0%" y1="0%" x2="66.7%" y2="100%"><stop offset="20%" stop-color="#f17c53" stop-opacity="1"></stop><stop offset="80%" stop-color="#cc5867" stop-opacity="1"></stop></linearGradient></defs><defs><linearGradient id="grad2_3" x1="0%" y1="0%" x2="66.7%" y2="100%"><stop offset="20%" stop-color="#96446e" stop-opacity="1"></stop><stop offset="80%" stop-color="#cc5867" stop-opacity="1"></stop></linearGradient></defs><defs><linearGradient id="grad2_4" x1="0%" y1="0%" x2="66.7%" y2="100%"><stop offset="20%" stop-color="#96446e" stop-opacity="1"></stop><stop offset="80%" stop-color="#593762" stop-opacity="1"></stop></linearGradient></defs><defs><linearGradient id="grad2_5" x1="0%" y1="0%" x2="66.7%" y2="100%"><stop offset="20%" stop-color="#232745" stop-opacity="1"></stop><stop offset="80%" stop-color="#593762" stop-opacity="1"></stop></linearGradient></defs><defs><linearGradient id="grad2_6" x1="0%" y1="0%" x2="66.7%" y2="100%"><stop offset="20%" stop-color="#232745" stop-opacity="1"></stop><stop offset="80%" stop-color="#001220" stop-opacity="1"></stop></linearGradient></defs><g transform="translate(900, 0)"><path d="M0 351.5C-60.9 340.4 -121.9 329.2 -173 299.6C-224.1 270.1 -265.4 222 -292.7 169C-320.1 116 -333.5 58 -347 0L0 0Z" fill="#0f1d33"></path><path d="M0 301.3C-52.2 291.8 -104.5 282.2 -148.3 256.8C-192.1 231.5 -227.4 190.3 -250.9 144.9C-274.4 99.4 -285.9 49.7 -297.4 0L0 0Z" fill="#3d3056"></path><path d="M0 251.1C-43.5 243.1 -87.1 235.2 -123.6 214C-160.1 192.9 -189.5 158.6 -209.1 120.7C-228.6 82.8 -238.2 41.4 -247.9 0L0 0Z" fill="#773d6b"></path><path d="M0 200.9C-34.8 194.5 -69.7 188.1 -98.9 171.2C-128.1 154.3 -151.6 126.9 -167.3 96.6C-182.9 66.3 -190.6 33.1 -198.3 0L0 0Z" fill="#b34c6d"></path><path d="M0 150.7C-26.1 145.9 -52.2 141.1 -74.1 128.4C-96 115.7 -113.7 95.1 -125.4 72.4C-137.2 49.7 -142.9 24.9 -148.7 0L0 0Z" fill="#e1685e"></path><path d="M0 100.4C-17.4 97.3 -34.8 94.1 -49.4 85.6C-64 77.2 -75.8 63.4 -83.6 48.3C-91.5 33.1 -95.3 16.6 -99.1 0L0 0Z" fill="#f99447"></path><path d="M0 50.2C-8.7 48.6 -17.4 47 -24.7 42.8C-32 38.6 -37.9 31.7 -41.8 24.1C-45.7 16.6 -47.6 8.3 -49.6 0L0 0Z" fill="#fbae3c"></path></g><g transform="translate(0, 600)"><path d="M0 -344C61.1 -338 122.3 -332 175.8 -304.4C229.3 -276.9 275.1 -227.8 300.5 -173.5C325.9 -119.2 331 -59.6 336 0L0 0Z" fill="#0f1d33"></path><path d="M0 -294.9C52.4 -289.7 104.8 -284.6 150.7 -261C196.5 -237.3 235.8 -195.3 257.6 -148.7C279.4 -102.1 283.7 -51.1 288 0L0 0Z" fill="#3d3056"></path><path d="M0 -245.7C43.7 -241.4 87.3 -237.1 125.6 -217.5C163.8 -197.8 196.5 -162.7 214.7 -123.9C232.8 -85.1 236.4 -42.6 240 0L0 0Z" fill="#773d6b"></path><path d="M0 -196.6C34.9 -193.1 69.9 -189.7 100.4 -174C131 -158.2 157.2 -130.2 171.7 -99.1C186.3 -68.1 189.1 -34 192 0L0 0Z" fill="#b34c6d"></path><path d="M0 -147.4C26.2 -144.9 52.4 -142.3 75.3 -130.5C98.3 -118.7 117.9 -97.6 128.8 -74.4C139.7 -51.1 141.8 -25.5 144 0L0 0Z" fill="#e1685e"></path><path d="M0 -98.3C17.5 -96.6 34.9 -94.9 50.2 -87C65.5 -79.1 78.6 -65.1 85.9 -49.6C93.1 -34 94.6 -17 96 0L0 0Z" fill="#f99447"></path><path d="M0 -49.1C8.7 -48.3 17.5 -47.4 25.1 -43.5C32.8 -39.6 39.3 -32.5 42.9 -24.8C46.6 -17 47.3 -8.5 48 0L0 0Z" fill="#fbae3c"></path></g></svg>