<svg id="visual" viewBox="0 0 1300 600" width="1300" height="600" xmlns="http://www.w3.org/2000/svg" xmlns:xlink="http://www.w3.org/1999/xlink" version="1.1"><rect x="0" y="0" width="1300" height="600" fill="#000f1a"></rect><defs><linearGradient id="grad1_0" x1="53.8%" y1="0%" x2="100%" y2="100%"><stop offset="6.666666666666669%" stop-color="#fbae3c" stop-opacity="1"></stop><stop offset="93.33333333333333%" stop-color="#fbae3c" stop-opacity="1"></stop></linearGradient></defs><defs><linearGradient id="grad1_1" x1="53.8%" y1="0%" x2="100%" y2="100%"><stop offset="6.666666666666669%" stop-color="#fbae3c" stop-opacity="1"></stop><stop offset="93.33333333333333%" stop-color="#ca5868" stop-opacity="1"></stop></linearGradient></defs><defs><linearGradient id="grad1_2" x1="53.8%" y1="0%" x2="100%" y2="100%"><stop offset="6.666666666666669%" stop-color="#543760" stop-opacity="1"></stop><stop offset="93.33333333333333%" stop-color="#ca5868" stop-opacity="1"></stop></linearGradient></defs><defs><linearGradient id="grad1_3" x1="53.8%" y1="0%" x2="100%" y2="100%"><stop offset="6.666666666666669%" stop-color="#543760" stop-opacity="1"></stop><stop offset="93.33333333333333%" stop-color="#000f1a" stop-opacity="1"></stop></linearGradient></defs><defs><linearGradient id="grad2_0" x1="0%" y1="0%" x2="46.2%" y2="100%"><stop offset="6.666666666666669%" stop-color="#fbae3c" stop-opacity="1"></stop><stop offset="93.33333333333333%" stop-color="#fbae3c" stop-opacity="1"></stop></linearGradient></defs><defs><linearGradient id="grad2_1" x1="0%" y1="0%" x2="46.2%" y2="100%"><stop offset="6.666666666666669%" stop-color="#ca5868" stop-opacity="1"></stop><stop offset="93.33333333333333%" stop-color="#fbae3c" stop-opacity="1"></stop></linearGradient></defs><defs><linearGradient id="grad2_2" x1="0%" y1="0%" x2="46.2%" y2="100%"><stop offset="6.666666666666669%" stop-color="#ca5868" stop-opacity="1"></stop><stop offset="93.33333333333333%" stop-color="#543760" stop-opacity="1"></stop></linearGradient></defs><defs><linearGradient id="grad2_3" x1="0%" y1="0%" x2="46.2%" y2="100%"><stop offset="6.666666666666669%" stop-color="#000f1a" stop-opacity="1"></stop><stop offset="93.33333333333333%" stop-color="#543760" stop-opacity="1"></stop></linearGradient></defs><g transform="translate(1300, 0)"><path d="M0 270C-47.5 263.1 -95 256.2 -135 233.8C-175 211.4 -207.4 173.6 -228.6 132C-249.9 90.4 -259.9 45.2 -270 0L0 0Z" fill="#202641"></path><path d="M0 202.5C-35.6 197.3 -71.3 192.2 -101.2 175.4C-131.2 158.6 -155.5 130.2 -171.5 99C-187.4 67.8 -195 33.9 -202.5 0L0 0Z" fill="#92456e"></path><path d="M0 135C-23.8 131.6 -47.5 128.1 -67.5 116.9C-87.5 105.7 -103.7 86.8 -114.3 66C-124.9 45.2 -130 22.6 -135 0L0 0Z" fill="#f07c54"></path><path d="M0 67.5C-11.9 65.8 -23.8 64.1 -33.7 58.5C-43.7 52.9 -51.8 43.4 -57.2 33C-62.5 22.6 -65 11.3 -67.5 0L0 0Z" fill="#fbae3c"></path></g><g transform="translate(0, 600)"><path d="M0 -270C48 -263.4 96 -256.7 135 -233.8C174 -210.9 204.2 -171.7 225.2 -130C246.2 -88.3 258.1 -44.2 270 0L0 0Z" fill="#202641"></path><path d="M0 -202.5C36 -197.5 72 -192.6 101.2 -175.4C130.5 -158.2 153.1 -128.8 168.9 -97.5C184.6 -66.2 193.6 -33.1 202.5 0L0 0Z" fill="#92456e"></path><path d="M0 -135C24 -131.7 48 -128.4 67.5 -116.9C87 -105.5 102.1 -85.8 112.6 -65C123.1 -44.2 129 -22.1 135 0L0 0Z" fill="#f07c54"></path><path d="M0 -67.5C12 -65.8 24 -64.2 33.7 -58.5C43.5 -52.7 51 -42.9 56.3 -32.5C61.5 -22.1 64.5 -11 67.5 0L0 0Z" fill="#fbae3c"></path></g></svg>